{
    "asset" : {
        "generator" : "Khronos glTF Blender I/O v1.3.48",
        "version" : "2.0"
    },
    "scene" : 0,
    "scenes" : [
        {
            "name" : "Scene",
            "nodes" : [
                0
            ]
        }
    ],
    "nodes" : [
        {
            "mesh" : 0,
            "name" : "Circle.003",
            "rotation" : [
                0.0778205543756485,
                0.10286823660135269,
                0.39301666617393494,
                0.9104396104812622
            ],
            "scale" : [
                1.2761939764022827,
                1.2761939764022827,
                1.2761939764022827
            ],
            "translation" : [
                -0.11121171712875366,
                1.6901665925979614,
                0.06295605003833771
            ]
        }
    ],
    "materials" : [
        {
            "doubleSided" : true,
            "emissiveFactor" : [
                0,
                0,
                0
            ],
            "name" : "Material.010",
            "pbrMetallicRoughness" : {
                "baseColorFactor" : [
                    0,
                    0,
                    0,
                    1
                ],
                "metallicFactor" : 0,
                "roughnessFactor" : 0.5
            }
        },
        {
            "doubleSided" : true,
            "emissiveFactor" : [
                0,
                0,
                0
            ],
            "name" : "Material.011",
            "pbrMetallicRoughness" : {
                "baseColorFactor" : [
                    1,
                    1,
                    1,
                    1
                ],
                "metallicFactor" : 0,
                "roughnessFactor" : 0.5
            }
        },
        {
            "doubleSided" : true,
            "emissiveFactor" : [
                0,
                0,
                0
            ],
            "name" : "Material.005",
            "pbrMetallicRoughness" : {
                "baseColorFactor" : [
                    1,
                    1,
                    1,
                    1
                ],
                "metallicFactor" : 0,
                "roughnessFactor" : 0.5
            }
        },
        {
            "doubleSided" : true,
            "emissiveFactor" : [
                0,
                0,
                0
            ],
            "name" : "Material.004",
            "pbrMetallicRoughness" : {
                "baseColorFactor" : [
                    0.3343237340450287,
                    0.005816989112645388,
                    0,
                    1
                ],
                "metallicFactor" : 0,
                "roughnessFactor" : 0.5
            }
        },
        {
            "doubleSided" : true,
            "emissiveFactor" : [
                0,
                0,
                0
            ],
            "name" : "Material.006",
            "pbrMetallicRoughness" : {
                "baseColorFactor" : [
                    0.014669538475573063,
                    0.014669538475573063,
                    0.014669538475573063,
                    1
                ],
                "metallicFactor" : 0,
                "roughnessFactor" : 0.5
            }
        }
    ],
    "meshes" : [
        {
            "name" : "Circle.008",
            "primitives" : [
                {
                    "attributes" : {
                        "POSITION" : 0,
                        "NORMAL" : 1,
                        "TEXCOORD_0" : 2
                    },
                    "indices" : 3,
                    "material" : 0
                },
                {
                    "attributes" : {
                        "POSITION" : 4,
                        "NORMAL" : 5,
                        "TEXCOORD_0" : 6
                    },
                    "indices" : 7,
                    "material" : 1
                },
                {
                    "attributes" : {
                        "POSITION" : 8,
                        "NORMAL" : 9,
                        "TEXCOORD_0" : 10
                    },
                    "indices" : 11,
                    "material" : 2
                },
                {
                    "attributes" : {
                        "POSITION" : 12,
                        "NORMAL" : 13,
                        "TEXCOORD_0" : 14
                    },
                    "indices" : 11,
                    "material" : 3
                },
                {
                    "attributes" : {
                        "POSITION" : 15,
                        "NORMAL" : 16,
                        "TEXCOORD_0" : 17
                    },
                    "indices" : 18,
                    "material" : 4
                }
            ]
        }
    ],
    "accessors" : [
        {
            "bufferView" : 0,
            "componentType" : 5126,
            "count" : 888,
            "max" : [
                0.030072666704654694,
                1.0461952686309814,
                0.02802097797393799
            ],
            "min" : [
                -0.03007292002439499,
                -1.4876148700714111,
                -0.028020985424518585
            ],
            "type" : "VEC3"
        },
        {
            "bufferView" : 1,
            "componentType" : 5126,
            "count" : 888,
            "type" : "VEC3"
        },
        {
            "bufferView" : 2,
            "componentType" : 5126,
            "count" : 888,
            "type" : "VEC2"
        },
        {
            "bufferView" : 3,
            "componentType" : 5123,
            "count" : 1668,
            "type" : "SCALAR"
        },
        {
            "bufferView" : 4,
            "componentType" : 5126,
            "count" : 264,
            "max" : [
                0.030072666704654694,
                -1.0880035161972046,
                0.02802097797393799
            ],
            "min" : [
                -0.03007292002439499,
                -1.4876148700714111,
                -0.028020985424518585
            ],
            "type" : "VEC3"
        },
        {
            "bufferView" : 5,
            "componentType" : 5126,
            "count" : 264,
            "type" : "VEC3"
        },
        {
            "bufferView" : 6,
            "componentType" : 5126,
            "count" : 264,
            "type" : "VEC2"
        },
        {
            "bufferView" : 7,
            "componentType" : 5123,
            "count" : 456,
            "type" : "SCALAR"
        },
        {
            "bufferView" : 8,
            "componentType" : 5126,
            "count" : 96,
            "max" : [
                0.4286670684814453,
                1.0281442403793335,
                0.4286669194698334
            ],
            "min" : [
                -0.4286668300628662,
                0.7771649360656738,
                -0.4286670982837677
            ],
            "type" : "VEC3"
        },
        {
            "bufferView" : 9,
            "componentType" : 5126,
            "count" : 96,
            "type" : "VEC3"
        },
        {
            "bufferView" : 10,
            "componentType" : 5126,
            "count" : 96,
            "type" : "VEC2"
        },
        {
            "bufferView" : 11,
            "componentType" : 5123,
            "count" : 144,
            "type" : "SCALAR"
        },
        {
            "bufferView" : 12,
            "componentType" : 5126,
            "count" : 96,
            "max" : [
                1.3895020484924316,
                0.7771650552749634,
                1.389501690864563
            ],
            "min" : [
                -1.389501690864563,
                0.150511234998703,
                -1.3895021677017212
            ],
            "type" : "VEC3"
        },
        {
            "bufferView" : 13,
            "componentType" : 5126,
            "count" : 96,
            "type" : "VEC3"
        },
        {
            "bufferView" : 14,
            "componentType" : 5126,
            "count" : 96,
            "type" : "VEC2"
        },
        {
            "bufferView" : 15,
            "componentType" : 5126,
            "count" : 144,
            "max" : [
                0.043845951557159424,
                1.0947846174240112,
                0.04384586215019226
            ],
            "min" : [
                -0.04384579882025719,
                1.0281442403793335,
                -0.04384588822722435
            ],
            "type" : "VEC3"
        },
        {
            "bufferView" : 16,
            "componentType" : 5126,
            "count" : 144,
            "type" : "VEC3"
        },
        {
            "bufferView" : 17,
            "componentType" : 5126,
            "count" : 144,
            "type" : "VEC2"
        },
        {
            "bufferView" : 18,
            "componentType" : 5123,
            "count" : 276,
            "type" : "SCALAR"
        }
    ],
    "bufferViews" : [
        {
            "buffer" : 0,
            "byteLength" : 10656,
            "byteOffset" : 0
        },
        {
            "buffer" : 0,
            "byteLength" : 10656,
            "byteOffset" : 10656
        },
        {
            "buffer" : 0,
            "byteLength" : 7104,
            "byteOffset" : 21312
        },
        {
            "buffer" : 0,
            "byteLength" : 3336,
            "byteOffset" : 28416
        },
        {
            "buffer" : 0,
            "byteLength" : 3168,
            "byteOffset" : 31752
        },
        {
            "buffer" : 0,
            "byteLength" : 3168,
            "byteOffset" : 34920
        },
        {
            "buffer" : 0,
            "byteLength" : 2112,
            "byteOffset" : 38088
        },
        {
            "buffer" : 0,
            "byteLength" : 912,
            "byteOffset" : 40200
        },
        {
            "buffer" : 0,
            "byteLength" : 1152,
            "byteOffset" : 41112
        },
        {
            "buffer" : 0,
            "byteLength" : 1152,
            "byteOffset" : 42264
        },
        {
            "buffer" : 0,
            "byteLength" : 768,
            "byteOffset" : 43416
        },
        {
            "buffer" : 0,
            "byteLength" : 288,
            "byteOffset" : 44184
        },
        {
            "buffer" : 0,
            "byteLength" : 1152,
            "byteOffset" : 44472
        },
        {
            "buffer" : 0,
            "byteLength" : 1152,
            "byteOffset" : 45624
        },
        {
            "buffer" : 0,
            "byteLength" : 768,
            "byteOffset" : 46776
        },
        {
            "buffer" : 0,
            "byteLength" : 1728,
            "byteOffset" : 47544
        },
        {
            "buffer" : 0,
            "byteLength" : 1728,
            "byteOffset" : 49272
        },
        {
            "buffer" : 0,
            "byteLength" : 1152,
            "byteOffset" : 51000
        },
        {
            "buffer" : 0,
            "byteLength" : 552,
            "byteOffset" : 52152
        }
    ],
    "buffers" : [
        {
            "byteLength" : 52704,
            "uri" : "data:application/octet-stream;base64,"
        }
    ]
}
